<svg width="244" height="42" viewBox="0 0 244 42" fill="none" xmlns="http://www.w3.org/2000/svg">
<path d="M232.396 11.625L218.667 25.3542L211.188 17.8958L208.25 20.8333L218.667 31.25L235.333 14.5833L232.396 11.625ZM222.833 0C211.333 0 202 9.33333 202 20.8333C202 32.3333 211.333 41.6667 222.833 41.6667C234.333 41.6667 243.667 32.3333 243.667 20.8333C243.667 9.33333 234.333 0 222.833 0ZM222.833 37.5C213.625 37.5 206.167 30.0417 206.167 20.8333C206.167 11.625 213.625 4.16667 222.833 4.16667C232.042 4.16667 239.5 11.625 239.5 20.8333C239.5 30.0417 232.042 37.5 222.833 37.5Z" fill="#A2A2A2"/>
<path d="M131.396 11.625L117.667 25.3542L110.188 17.8958L107.25 20.8333L117.667 31.25L134.333 14.5833L131.396 11.625ZM121.833 0C110.333 0 101 9.33333 101 20.8333C101 32.3333 110.333 41.6667 121.833 41.6667C133.333 41.6667 142.667 32.3333 142.667 20.8333C142.667 9.33333 133.333 0 121.833 0ZM121.833 37.5C112.625 37.5 105.167 30.0417 105.167 20.8333C105.167 11.625 112.625 4.16667 121.833 4.16667C131.042 4.16667 138.5 11.625 138.5 20.8333C138.5 30.0417 131.042 37.5 121.833 37.5Z" fill="#A2A2A2"/>
<line x1="41" y1="21.5" x2="101" y2="21.5" stroke="#A2A2A2" stroke-width="7"/>
<line x1="142" y1="21.5" x2="202" y2="21.5" stroke="#A2A2A2" stroke-width="7"/>
<path d="M20.835 0C9.33408 0 0 9.33408 0 20.835C0 32.3359 9.33408 41.67 20.835 41.67C32.3359 41.67 41.67 32.3359 41.67 20.835C41.67 9.33408 32.3359 0 20.835 0ZM16.668 31.2525L6.2505 20.835L9.18823 17.8973L16.668 25.3562L32.4818 9.54243L35.4195 12.501L16.668 31.2525Z" fill="#071A40"/>
</svg>
