<svg width="194" height="50" viewBox="0 0 194 50" fill="none" xmlns="http://www.w3.org/2000/svg">
<path fill-rule="evenodd" clip-rule="evenodd" d="M17.6364 49.7872L26.3558 0H57.4781C61.0537 0.282693 68.4637 2.90841 69.4997 11.1497C70.5886 19.8119 69.6479 24.3296 69.0515 27.1942C68.9386 27.7364 68.838 28.2194 68.7659 28.6601C68.4033 30.8751 63.3486 47.1183 54.176 49.7872H40.3198H29.4853H17.6364ZM29.2032 39.7599H37.9964L40.8112 28.2859L48.6828 28.4855L50.9247 21.0523L42.9784 21.3267L44.4481 17.1861L56.7288 17.3357L58.9457 9.9774H37.822L28.7299 39.7599H29.2032Z" fill="#071A40"/>
<path d="M76.322 17.22C77.774 17.34 79.118 17.7 80.354 18.3C81.59 18.9 82.568 19.656 83.288 20.568C84.008 21.468 84.368 22.416 84.368 23.412C84.368 24.288 83.984 25.254 83.216 26.31C82.448 27.366 81.512 28.26 80.408 28.992C79.316 29.724 78.32 30.09 77.42 30.09C77.12 30.09 76.736 29.94 76.268 29.64C75.812 29.34 75.41 28.998 75.062 28.614C74.714 28.218 74.54 27.906 74.54 27.678C74.54 27.474 74.66 26.904 74.9 25.968C75.14 24.996 75.338 24.12 75.494 23.34C75.554 23.04 75.686 22.512 75.89 21.756C75.914 21.648 75.974 21.432 76.07 21.108C76.166 20.772 76.238 20.466 76.286 20.19L75.548 20.154C75.356 19.77 75.26 19.386 75.26 19.002C75.26 18.642 75.35 18.312 75.53 18.012C75.71 17.7 75.974 17.436 76.322 17.22ZM77.42 27.732C78.62 27.108 79.616 26.346 80.408 25.446C81.212 24.546 81.614 23.7 81.614 22.908C81.614 22.44 81.332 21.99 80.768 21.558C80.216 21.126 79.58 20.838 78.86 20.694C78.716 21.426 78.5 22.476 78.212 23.844C77.852 25.548 77.588 26.844 77.42 27.732ZM93.4377 17.4C93.6657 17.532 93.8337 17.718 93.9417 17.958C94.0617 18.186 94.1217 18.438 94.1217 18.714C94.1217 18.954 94.0737 19.194 93.9778 19.434C93.8818 19.674 93.7558 19.872 93.5997 20.028C92.0517 20.052 90.7617 20.112 89.7297 20.208C89.5257 20.94 89.3337 21.756 89.1537 22.656C90.3538 22.56 91.3678 22.416 92.1958 22.224C92.4358 22.368 92.6158 22.56 92.7358 22.8C92.8678 23.028 92.9337 23.28 92.9337 23.556C92.9337 23.808 92.8797 24.048 92.7717 24.276C92.6758 24.492 92.5378 24.666 92.3577 24.798C92.1297 24.822 91.9077 24.84 91.6917 24.852C91.4758 24.864 91.2658 24.876 91.0617 24.888L88.7397 25.05L88.4157 26.67L88.2357 27.534C88.9678 27.462 89.6278 27.366 90.2158 27.246C90.8157 27.114 91.4457 26.934 92.1057 26.706C92.4417 26.862 92.6997 27.084 92.8798 27.372C93.0718 27.648 93.1678 27.954 93.1678 28.29C93.1678 28.77 92.9818 29.196 92.6097 29.568C91.8658 29.712 91.0318 29.82 90.1077 29.892C89.1837 29.964 88.3257 30 87.5337 30C87.3177 30 87.0357 29.892 86.6877 29.676C86.3397 29.46 86.0277 29.208 85.7517 28.92C85.4877 28.632 85.3557 28.386 85.3557 28.182C85.3557 28.002 85.4937 27.306 85.7697 26.094C85.9737 25.206 86.1717 24.282 86.3637 23.322C86.4957 22.662 86.5617 22.332 86.5617 22.332C86.7537 21.396 86.8797 20.718 86.9397 20.298L86.1837 20.352C85.9557 20.232 85.7697 20.058 85.6257 19.83C85.4937 19.59 85.4277 19.332 85.4277 19.056C85.4277 18.576 85.6137 18.15 85.9857 17.778C87.6297 17.754 89.0577 17.718 90.2697 17.67C91.4937 17.622 92.5497 17.532 93.4377 17.4ZM99.1114 30C98.8834 30 98.5534 29.904 98.1214 29.712C97.6894 29.508 97.2874 29.274 96.9154 29.01C96.5554 28.734 96.3514 28.5 96.3034 28.308C96.2434 28.044 96.1354 26.94 95.9794 24.996C95.9314 24.216 95.8894 23.646 95.8534 23.286C95.8294 22.974 95.8054 22.74 95.7814 22.584C95.6254 20.976 95.5474 19.812 95.5474 19.092C95.5474 18.288 95.6374 17.862 95.8174 17.814C95.8654 17.802 95.9434 17.796 96.0514 17.796C96.3154 17.796 96.6394 17.862 97.0234 17.994C97.4194 18.114 97.7674 18.27 98.0674 18.462C98.3674 18.654 98.5414 18.84 98.5894 19.02C98.6134 19.092 98.6254 19.362 98.6254 19.83C98.6254 20.49 98.6074 21.3 98.5714 22.26C98.5234 23.82 98.4994 25.026 98.4994 25.878V26.526C99.5194 24.294 100.659 21.3 101.919 17.544C102.279 17.424 102.645 17.364 103.017 17.364C103.509 17.364 103.923 17.496 104.259 17.76C104.607 18.024 104.835 18.426 104.943 18.966C101.571 26.322 99.6274 30 99.1114 30ZM114.127 17.4C114.355 17.532 114.523 17.718 114.631 17.958C114.75 18.186 114.81 18.438 114.81 18.714C114.81 18.954 114.763 19.194 114.667 19.434C114.571 19.674 114.445 19.872 114.289 20.028C112.741 20.052 111.451 20.112 110.419 20.208C110.215 20.94 110.023 21.756 109.843 22.656C111.043 22.56 112.057 22.416 112.885 22.224C113.125 22.368 113.305 22.56 113.425 22.8C113.557 23.028 113.623 23.28 113.623 23.556C113.623 23.808 113.569 24.048 113.461 24.276C113.365 24.492 113.227 24.666 113.047 24.798C112.819 24.822 112.597 24.84 112.381 24.852C112.165 24.864 111.955 24.876 111.751 24.888L109.428 25.05L109.105 26.67L108.925 27.534C109.657 27.462 110.317 27.366 110.905 27.246C111.505 27.114 112.135 26.934 112.795 26.706C113.131 26.862 113.389 27.084 113.569 27.372C113.761 27.648 113.857 27.954 113.857 28.29C113.857 28.77 113.671 29.196 113.299 29.568C112.555 29.712 111.721 29.82 110.797 29.892C109.873 29.964 109.015 30 108.222 30C108.007 30 107.725 29.892 107.377 29.676C107.029 29.46 106.716 29.208 106.44 28.92C106.176 28.632 106.044 28.386 106.044 28.182C106.044 28.002 106.182 27.306 106.459 26.094C106.662 25.206 106.86 24.282 107.053 23.322C107.185 22.662 107.251 22.332 107.251 22.332C107.442 21.396 107.568 20.718 107.629 20.298L106.873 20.352C106.645 20.232 106.459 20.058 106.314 19.83C106.182 19.59 106.116 19.332 106.116 19.056C106.116 18.576 106.303 18.15 106.675 17.778C108.319 17.754 109.747 17.718 110.959 17.67C112.183 17.622 113.239 17.532 114.127 17.4ZM122.492 26.634C122.828 26.79 123.086 27.012 123.266 27.3C123.458 27.588 123.554 27.9 123.554 28.236C123.554 28.728 123.368 29.16 122.996 29.532C122.252 29.688 121.454 29.808 120.602 29.892C119.75 29.976 118.982 30.018 118.298 30.018C118.01 30.018 117.8 30.012 117.668 30C117.452 29.988 117.17 29.874 116.822 29.658C116.486 29.442 116.186 29.196 115.922 28.92C115.658 28.632 115.526 28.386 115.526 28.182C115.526 27.966 115.658 27.288 115.922 26.148C116.174 25.08 116.408 23.958 116.624 22.782L116.768 21.99C117.008 20.634 117.23 19.53 117.434 18.678C117.65 17.826 117.866 17.4 118.082 17.4C118.31 17.4 118.616 17.502 119 17.706C119.384 17.91 119.72 18.15 120.008 18.426C120.308 18.702 120.458 18.942 120.458 19.146C120.458 19.266 120.392 19.56 120.26 20.028C120.14 20.484 120.068 20.766 120.044 20.874C119.648 22.278 119.336 23.502 119.108 24.546C118.952 25.29 118.718 26.286 118.406 27.534C119.81 27.39 121.172 27.09 122.492 26.634ZM133.04 17.4C133.268 17.532 133.436 17.718 133.544 17.958C133.664 18.186 133.724 18.438 133.724 18.714C133.724 18.954 133.676 19.194 133.58 19.434C133.484 19.674 133.358 19.872 133.202 20.028C131.834 20.052 130.544 20.112 129.332 20.208C129.272 20.46 129.146 21.018 128.954 21.882C128.93 21.99 128.852 22.368 128.72 23.016C130.004 22.908 131.018 22.764 131.762 22.584C132.002 22.728 132.182 22.92 132.302 23.16C132.434 23.388 132.5 23.64 132.5 23.916C132.5 24.168 132.446 24.408 132.338 24.636C132.242 24.852 132.104 25.026 131.924 25.158C131.696 25.182 131.468 25.2 131.24 25.212C131.024 25.224 130.814 25.236 130.61 25.248L128.36 25.41C128.264 26.022 128.168 26.748 128.072 27.588C127.964 28.488 127.868 29.118 127.784 29.478C127.7 29.826 127.562 30 127.37 30C127.07 30 126.728 29.898 126.344 29.694C125.972 29.478 125.648 29.232 125.372 28.956C125.108 28.668 124.976 28.434 124.976 28.254C124.976 28.074 125.036 27.678 125.156 27.066C125.288 26.454 125.432 25.794 125.588 25.086C126.128 22.758 126.446 21.162 126.542 20.298L125.786 20.352C125.558 20.232 125.372 20.058 125.228 19.83C125.096 19.59 125.03 19.332 125.03 19.056C125.03 18.576 125.216 18.15 125.588 17.778C127.232 17.754 128.66 17.718 129.872 17.67C131.096 17.622 132.152 17.532 133.04 17.4ZM138.523 17.22C139.399 17.22 140.227 17.43 141.007 17.85C141.799 18.27 142.429 18.828 142.897 19.524C143.377 20.208 143.617 20.922 143.617 21.666C143.617 22.83 143.305 24.078 142.681 25.41C142.057 26.73 141.265 27.84 140.305 28.74C139.357 29.64 138.421 30.09 137.497 30.09C137.017 30.09 136.477 29.892 135.877 29.496C135.289 29.088 134.785 28.608 134.365 28.056C133.945 27.492 133.735 26.994 133.735 26.562C133.735 25.878 133.939 24.702 134.347 23.034C134.755 21.354 135.133 20.118 135.481 19.326C135.877 19.206 136.249 19.146 136.597 19.146C136.837 19.146 137.029 19.17 137.173 19.218C137.149 18.774 137.257 18.366 137.497 17.994C137.737 17.622 138.079 17.364 138.523 17.22ZM136.669 27.624C137.821 27.204 138.787 26.4 139.567 25.212C140.347 24.012 140.899 22.698 141.223 21.27C140.887 21.03 140.449 20.832 139.909 20.676C139.381 20.52 138.811 20.436 138.199 20.424C138.223 20.544 138.247 20.724 138.271 20.964C137.167 23.028 136.633 25.248 136.669 27.624ZM149.342 17.22C150.218 17.22 151.046 17.43 151.826 17.85C152.618 18.27 153.248 18.828 153.716 19.524C154.196 20.208 154.436 20.922 154.436 21.666C154.436 22.83 154.124 24.078 153.5 25.41C152.876 26.73 152.084 27.84 151.124 28.74C150.176 29.64 149.24 30.09 148.316 30.09C147.836 30.09 147.296 29.892 146.696 29.496C146.108 29.088 145.604 28.608 145.184 28.056C144.764 27.492 144.554 26.994 144.554 26.562C144.554 25.878 144.758 24.702 145.166 23.034C145.574 21.354 145.952 20.118 146.3 19.326C146.696 19.206 147.068 19.146 147.416 19.146C147.656 19.146 147.848 19.17 147.992 19.218C147.968 18.774 148.076 18.366 148.316 17.994C148.556 17.622 148.898 17.364 149.342 17.22ZM147.488 27.624C148.64 27.204 149.606 26.4 150.386 25.212C151.166 24.012 151.718 22.698 152.042 21.27C151.706 21.03 151.268 20.832 150.728 20.676C150.2 20.52 149.63 20.436 149.018 20.424C149.042 20.544 149.066 20.724 149.09 20.964C147.986 23.028 147.452 25.248 147.488 27.624ZM157.249 17.22C158.701 17.34 160.045 17.7 161.281 18.3C162.517 18.9 163.495 19.656 164.215 20.568C164.935 21.468 165.295 22.416 165.295 23.412C165.295 24.288 164.911 25.254 164.143 26.31C163.375 27.366 162.439 28.26 161.335 28.992C160.243 29.724 159.247 30.09 158.347 30.09C158.047 30.09 157.663 29.94 157.195 29.64C156.739 29.34 156.337 28.998 155.989 28.614C155.641 28.218 155.467 27.906 155.467 27.678C155.467 27.474 155.587 26.904 155.827 25.968C156.067 24.996 156.265 24.12 156.421 23.34C156.481 23.04 156.613 22.512 156.817 21.756C156.841 21.648 156.901 21.432 156.997 21.108C157.093 20.772 157.165 20.466 157.213 20.19L156.475 20.154C156.283 19.77 156.187 19.386 156.187 19.002C156.187 18.642 156.277 18.312 156.457 18.012C156.637 17.7 156.901 17.436 157.249 17.22ZM158.347 27.732C159.547 27.108 160.543 26.346 161.335 25.446C162.139 24.546 162.541 23.7 162.541 22.908C162.541 22.44 162.259 21.99 161.695 21.558C161.143 21.126 160.507 20.838 159.787 20.694C159.643 21.426 159.427 22.476 159.139 23.844C158.779 25.548 158.515 26.844 158.347 27.732Z" fill="#071A40"/>
</svg>
